<?xml version="1.0" encoding="utf-8"?>
<!-- Generator: Adobe Illustrator 21.0.0, SVG Export Plug-In . SVG Version: 6.00 Build 0)  -->
<svg version="1.1" id="Layer_1" xmlns="http://www.w3.org/2000/svg" xmlns:xlink="http://www.w3.org/1999/xlink" x="0px" y="0px"
	 viewBox="0 0 260 55" style="enable-background:new 0 0 260 55;" xml:space="preserve">
<style type="text/css">
	.st0{fill:#FFFFFF;}
	.st1{fill:url(#SVGID_5_);}
	.st2{fill:#002430;}
	.st3{fill:#231F20;}
	.st4{fill:url(#SVGID_6_);}
	.st5{fill:#00273D;}
	.st6{fill:url(#SVGID_7_);}
	.st7{fill:#FFBC00;}
	.st8{fill:#FBB03B;}
	.st9{fill:#F7931E;}
	.st10{fill:url(#SVGID_8_);}
	.st11{fill:#0E222D;}
	.st12{fill:#F6921E;}
	.st13{fill:#173645;}
	.st14{fill:none;}
	.st15{fill:#AD5C1A;}
	.st16{fill:url(#SVGID_9_);}
	.st17{fill:url(#SVGID_10_);}
	.st18{fill:url(#SVGID_11_);}
	.st19{fill:url(#SVGID_12_);}
	.st20{fill:#E3E4E5;}
	.st21{fill:#D42E5C;}
	.st22{fill:url(#SVGID_13_);}
	.st23{fill:url(#SVGID_14_);}
	.st24{fill:url(#SVGID_15_);}
	.st25{fill:url(#SVGID_16_);}
	.st26{fill:url(#SVGID_17_);}
	.st27{fill:url(#SVGID_18_);}
	.st28{fill:url(#SVGID_19_);}
	.st29{fill:url(#SVGID_20_);}
	.st30{fill:url(#SVGID_21_);}
	.st31{fill:url(#SVGID_22_);}
	.st32{fill:url(#SVGID_23_);}
	.st33{fill:url(#SVGID_24_);}
	.st34{fill:#00273C;}
	.st35{fill:#C7B299;}
	.st36{fill:#0E233B;}
	.st37{fill:#1A2222;}
	.st38{fill:url(#SVGID_29_);}
	.st39{fill:url(#SVGID_30_);}
	.st40{fill:url(#SVGID_31_);}
	.st41{fill:url(#SVGID_32_);}
	.st42{fill:url(#SVGID_33_);}
	.st43{fill:url(#SVGID_34_);}
	.st44{fill:url(#SVGID_35_);}
	.st45{fill:url(#SVGID_36_);}
	.st46{fill:url(#SVGID_37_);}
	.st47{fill:url(#SVGID_38_);}
	.st48{fill:url(#SVGID_39_);}
	.st49{fill:url(#SVGID_40_);}
	.st50{fill:url(#SVGID_41_);}
	.st51{fill:url(#SVGID_42_);}
	.st52{fill:url(#SVGID_43_);}
	.st53{fill:url(#SVGID_44_);}
	.st54{fill:url(#SVGID_45_);}
	.st55{fill:url(#SVGID_46_);}
	.st56{fill:url(#SVGID_47_);}
	.st57{fill:url(#SVGID_48_);}
	.st58{fill:url(#SVGID_49_);}
	.st59{fill:url(#SVGID_50_);}
	.st60{fill:url(#SVGID_51_);}
	.st61{fill:url(#SVGID_52_);}
	.st62{fill:url(#SVGID_53_);}
	.st63{fill:url(#SVGID_54_);}
	.st64{fill:url(#SVGID_55_);}
	.st65{fill:url(#SVGID_56_);}
	.st66{fill:url(#SVGID_57_);}
	.st67{fill:url(#SVGID_58_);}
	.st68{fill:url(#SVGID_59_);}
	.st69{fill:url(#SVGID_60_);}
	.st70{fill:url(#SVGID_61_);}
	.st71{fill:url(#SVGID_62_);}
	.st72{fill:url(#SVGID_63_);}
	.st73{fill:url(#SVGID_64_);}
	.st74{fill:url(#SVGID_65_);}
	.st75{fill:url(#SVGID_66_);}
	.st76{fill:url(#SVGID_67_);}
	.st77{fill:url(#SVGID_68_);}
	.st78{fill:url(#SVGID_69_);}
	.st79{fill:url(#SVGID_70_);}
	.st80{fill:url(#SVGID_71_);}
	.st81{fill:url(#SVGID_72_);}
	.st82{fill:url(#SVGID_73_);}
	.st83{fill:url(#SVGID_74_);}
	.st84{fill:url(#SVGID_75_);}
	.st85{fill:url(#SVGID_76_);}
	.st86{fill:url(#SVGID_77_);}
	.st87{fill:url(#SVGID_78_);}
	.st88{fill:url(#SVGID_79_);}
	.st89{fill:url(#SVGID_80_);}
	.st90{fill:url(#SVGID_81_);}
	.st91{fill:url(#SVGID_82_);}
	.st92{fill:url(#SVGID_83_);}
	.st93{fill:url(#SVGID_84_);}
	.st94{fill:url(#SVGID_85_);}
	.st95{fill:url(#SVGID_86_);}
	.st96{fill:url(#SVGID_87_);}
	.st97{fill:url(#SVGID_88_);}
	.st98{fill:url(#SVGID_89_);}
	.st99{fill:url(#SVGID_90_);}
	.st100{fill:url(#SVGID_91_);}
	.st101{fill:url(#SVGID_92_);}
	.st102{fill:url(#SVGID_93_);}
	.st103{fill:url(#SVGID_94_);}
	.st104{fill:url(#SVGID_95_);}
	.st105{fill:url(#SVGID_96_);}
	.st106{fill:url(#SVGID_97_);}
	.st107{fill:url(#SVGID_98_);}
	.st108{fill:url(#SVGID_99_);}
	.st109{fill:url(#SVGID_100_);}
	.st110{fill:url(#SVGID_101_);}
	.st111{fill:url(#SVGID_102_);}
	.st112{fill:url(#SVGID_103_);}
	.st113{fill:url(#SVGID_104_);}
	.st114{fill:url(#SVGID_105_);}
	.st115{fill:url(#SVGID_106_);}
	.st116{fill:url(#SVGID_107_);}
	.st117{fill:url(#SVGID_108_);}
	.st118{fill:url(#SVGID_109_);}
	.st119{fill:url(#SVGID_110_);}
	.st120{fill:url(#SVGID_111_);}
	.st121{fill:url(#SVGID_112_);}
	.st122{fill:url(#SVGID_113_);}
	.st123{fill:url(#SVGID_114_);}
	.st124{fill:url(#SVGID_115_);}
	.st125{fill:url(#SVGID_116_);}
	.st126{fill:url(#SVGID_117_);}
	.st127{fill:url(#SVGID_118_);}
	.st128{fill:url(#SVGID_119_);}
	.st129{fill:url(#SVGID_120_);}
	.st130{fill:url(#SVGID_121_);}
	.st131{fill:url(#SVGID_122_);}
	.st132{fill:url(#SVGID_123_);}
	.st133{fill:url(#SVGID_124_);}
	.st134{fill:url(#SVGID_125_);}
	.st135{fill:url(#SVGID_126_);}
	.st136{fill:url(#SVGID_127_);}
	.st137{fill:url(#SVGID_128_);}
	.st138{fill:url(#SVGID_131_);}
	.st139{fill:url(#SVGID_132_);}
	.st140{fill:url(#SVGID_133_);}
	.st141{fill:url(#SVGID_134_);}
	.st142{fill:url(#SVGID_135_);}
	.st143{fill:url(#SVGID_136_);}
	.st144{fill:url(#SVGID_137_);}
	.st145{fill:url(#SVGID_138_);}
	.st146{fill:url(#SVGID_139_);}
	.st147{fill:url(#SVGID_140_);}
	.st148{fill:url(#SVGID_141_);}
	.st149{fill:#422100;}
	.st150{fill:#030000;}
	.st151{fill:#FFFFFF;stroke:url(#SVGID_142_);stroke-miterlimit:10;}
	.st152{fill:url(#SVGID_143_);}
	.st153{fill:url(#SVGID_144_);}
	.st154{fill:url(#SVGID_145_);}
	.st155{fill:url(#SVGID_146_);}
	.st156{fill:url(#SVGID_147_);}
	.st157{fill:url(#SVGID_148_);}
	.st158{fill:url(#SVGID_149_);}
	.st159{fill:url(#SVGID_150_);}
	.st160{fill:url(#SVGID_151_);}
	.st161{fill:url(#SVGID_152_);}
	.st162{fill:url(#SVGID_153_);}
	.st163{fill:url(#SVGID_154_);}
	.st164{fill:url(#SVGID_155_);}
	.st165{fill:url(#SVGID_156_);}
	.st166{fill:url(#SVGID_157_);}
	.st167{fill:url(#SVGID_158_);}
	.st168{fill:url(#SVGID_159_);}
	.st169{fill:url(#SVGID_160_);}
	.st170{fill:url(#SVGID_161_);}
	.st171{fill:url(#SVGID_162_);}
	.st172{fill:url(#SVGID_163_);}
	.st173{fill:url(#SVGID_164_);}
	.st174{fill:url(#SVGID_165_);}
	.st175{fill:url(#SVGID_166_);}
	.st176{fill:url(#SVGID_167_);}
	.st177{fill:url(#SVGID_168_);}
	.st178{fill:url(#SVGID_169_);}
	.st179{fill:url(#SVGID_170_);}
	.st180{fill:url(#SVGID_171_);}
	.st181{fill:url(#SVGID_172_);}
	.st182{fill:url(#SVGID_173_);}
	.st183{fill:url(#SVGID_174_);}
	.st184{fill:url(#SVGID_175_);}
	.st185{fill:url(#SVGID_176_);}
	.st186{fill:url(#SVGID_177_);}
	.st187{fill:url(#SVGID_178_);}
	.st188{fill:url(#SVGID_179_);}
	.st189{fill:#FFFFFF;stroke:url(#SVGID_180_);stroke-miterlimit:10;}
	.st190{fill:url(#SVGID_181_);}
	.st191{fill:url(#SVGID_182_);}
	.st192{fill:url(#SVGID_183_);}
	.st193{fill:url(#SVGID_184_);}
	.st194{fill:url(#SVGID_185_);}
	.st195{fill:url(#SVGID_186_);}
	.st196{fill:url(#SVGID_187_);}
	.st197{fill:url(#SVGID_188_);}
	.st198{fill:url(#SVGID_189_);}
	.st199{fill:url(#SVGID_190_);}
	.st200{fill:url(#SVGID_191_);}
	.st201{fill:url(#SVGID_192_);}
	.st202{fill:url(#SVGID_193_);}
	.st203{fill:url(#SVGID_194_);}
	.st204{fill:url(#SVGID_195_);}
	.st205{fill:url(#SVGID_196_);}
	.st206{fill:url(#SVGID_197_);}
	.st207{fill:url(#SVGID_198_);}
	.st208{fill:url(#SVGID_199_);}
	.st209{fill:url(#SVGID_200_);}
	.st210{fill:url(#SVGID_201_);}
	.st211{fill:url(#SVGID_202_);}
	.st212{fill:url(#SVGID_203_);}
</style>
<g>
	<g>
		<linearGradient id="SVGID_2_" gradientUnits="userSpaceOnUse" x1="-11.5121" y1="110.6842" x2="308.4879" y2="-26.3158">
			<stop  offset="0" style="stop-color:#CB8A2C"/>
			<stop  offset="5.911693e-02" style="stop-color:#D19945"/>
			<stop  offset="0.2977" style="stop-color:#E9D1A4"/>
			<stop  offset="0.405" style="stop-color:#F3E7CA"/>
			<stop  offset="0.4771" style="stop-color:#F1E3C3"/>
			<stop  offset="0.5821" style="stop-color:#EDD7B0"/>
			<stop  offset="0.7072" style="stop-color:#E6C590"/>
			<stop  offset="0.8478" style="stop-color:#DCAA63"/>
			<stop  offset="1" style="stop-color:#CF892B"/>
		</linearGradient>
		<path style="fill:url(#SVGID_2_);" d="M210.1,27.5c0,3.8-0.7,7.3-2.2,10.6c-1.5,3.3-3.4,6.2-5.9,8.6c-2.5,2.5-5.3,4.4-8.7,5.8
			c-3.3,1.4-6.9,2.1-10.6,2.1c-3.8,0-7.3-0.7-10.6-2.1c-3.3-1.4-6.2-3.4-8.6-5.8c-2.5-2.5-4.4-5.3-5.8-8.6
			c-1.4-3.3-2.1-6.8-2.1-10.6c0-3.8,0.7-7.3,2.1-10.7c1.4-3.3,3.4-6.2,5.8-8.7c2.5-2.5,5.3-4.4,8.6-5.8c3.3-1.4,6.8-2.1,10.6-2.1
			c3.7,0,7.3,0.7,10.6,2.1c3.3,1.4,6.2,3.4,8.7,5.8c2.5,2.5,4.4,5.4,5.9,8.7C209.4,20.2,210.1,23.7,210.1,27.5z M182.8,11.4
			c-2.2,0-4.3,0.4-6.2,1.3c-1.9,0.9-3.6,2-5.1,3.5c-1.5,1.5-2.6,3.2-3.5,5.1c-0.9,1.9-1.3,4-1.3,6.2c0,2.2,0.4,4.3,1.3,6.2
			c0.9,1.9,2,3.6,3.5,5.1c1.4,1.5,3.1,2.6,5.1,3.5c1.9,0.9,4,1.3,6.2,1.3c2.2,0,4.3-0.4,6.2-1.3c1.9-0.9,3.6-2,5.1-3.5
			c1.5-1.4,2.6-3.1,3.4-5.1c0.8-1.9,1.3-4,1.3-6.2c0-2.2-0.4-4.3-1.3-6.2c-0.8-1.9-2-3.7-3.4-5.1c-1.4-1.5-3.1-2.6-5.1-3.5
			C187.1,11.8,185,11.4,182.8,11.4z"/>
		<linearGradient id="SVGID_4_" gradientUnits="userSpaceOnUse" x1="-3.9405" y1="128.3696" x2="316.0594" y2="-8.6304">
			<stop  offset="0" style="stop-color:#CB8A2C"/>
			<stop  offset="5.911693e-02" style="stop-color:#D19945"/>
			<stop  offset="0.2977" style="stop-color:#E9D1A4"/>
			<stop  offset="0.405" style="stop-color:#F3E7CA"/>
			<stop  offset="0.4771" style="stop-color:#F1E3C3"/>
			<stop  offset="0.5821" style="stop-color:#EDD7B0"/>
			<stop  offset="0.7072" style="stop-color:#E6C590"/>
			<stop  offset="0.8478" style="stop-color:#DCAA63"/>
			<stop  offset="1" style="stop-color:#CF892B"/>
		</linearGradient>
		<path style="fill:url(#SVGID_4_);" d="M259.7,54.1c-0.4,0.6-1.2,0.5-1.2,0.5h-1.8c0,0-8.1,0-13-4.8c-2.4-2.4-2.7-3.2-3.9-4.5
			c-1-1.1-2.8-3.6-2.8-3.6l-4-5.7l-8.6,14l-2.6,3.8c0,0-0.4,0.6-0.6,0.7c-0.2,0.1-1,0.1-1,0.1h-5.4h-5.2c0,0-1.2,0-1.5-0.4
			c-0.3-0.5,0.2-1.1,0.2-1.1l18-26.9c0,0-12.6-18.3-13.4-19c-0.5-0.5-3.1-3.6-4-4.2c-1.9-1.3-4.6-2.3-4.6-2.3s-0.2-0.1-0.2-0.3
			c0.1-0.2,0.4-0.2,0.4-0.2h4.4h6.7c0,0,4.4,0.1,7,2.7c1.8,1.8,4.1,4.8,4.1,4.8l6.3,9.9l10.7-17.4h9.5c0,0,1.5,0,2.6,0
			c0.5,0,0.7,0.3,0.8,0.5c0.1,0.5-1.6,3.2-1.6,3.2l-14.9,22.1l19.4,26.6C259.5,52.8,260.1,53.6,259.7,54.1z M216.2,54.7"/>
		<linearGradient id="SVGID_5_" gradientUnits="userSpaceOnUse" x1="-19.5878" y1="91.8213" x2="300.4122" y2="-45.1787">
			<stop  offset="0" style="stop-color:#CB8A2C"/>
			<stop  offset="5.911693e-02" style="stop-color:#D19945"/>
			<stop  offset="0.2977" style="stop-color:#E9D1A4"/>
			<stop  offset="0.405" style="stop-color:#F3E7CA"/>
			<stop  offset="0.4771" style="stop-color:#F1E3C3"/>
			<stop  offset="0.5821" style="stop-color:#EDD7B0"/>
			<stop  offset="0.7072" style="stop-color:#E6C590"/>
			<stop  offset="0.8478" style="stop-color:#DCAA63"/>
			<stop  offset="1" style="stop-color:#CF892B"/>
		</linearGradient>
		<path class="st1" d="M149.5,38.3c-0.7-0.3-0.6-0.3-1.6-0.7c-0.1,0-0.8-0.2-0.9-0.2c-0.9-0.1-2,0-3.2,0.5c-1.3,0.5-1.6,0.9-2.6,1.8
			c-1,0.8-1.3,1-2.5,1.7c-2.4,1.4-5.1,2.1-8,2.1c-2.2,0-4.3-0.4-6.2-1.3c-1.9-0.9-3.6-2-5.1-3.4c-1.5-1.4-2.6-3.1-3.4-5.1
			c-0.8-2-1.2-4-1.2-6.2c0-2.2,0.4-4.2,1.2-6.2c0.8-2,2-3.7,3.4-5.1c1.5-1.4,3.2-2.6,5.1-3.4c1.9-0.9,4-1.3,6.2-1.3
			c2.9,0,5.6,0.7,8,2.1c1.2,0.7,1.6,0.9,2.5,1.7c1,0.8,1.3,1.2,2.6,1.8c1.1,0.5,2.3,0.6,3.2,0.5c0.1,0,0.8-0.2,0.9-0.2
			c1-0.4,1-0.4,1.6-0.7c0.7-0.3,1.3-0.7,2-1.1c0.7-0.4,1.6-0.9,2.8-1.5c-1.2-2.1-2.5-3.9-4.2-5.6c-1.6-1.7-3.5-3.2-5.5-4.4
			c-2-1.2-4.2-2.2-6.6-2.9c-2.4-0.7-4.8-1-7.4-1c-3.8,0-7.3,0.7-10.6,2.1c-3.3,1.4-6.2,3.4-8.7,5.9c-2.5,2.5-4.4,5.4-5.8,8.7
			c-1.4,3.3-2.1,6.8-2.1,10.5c0,3.7,0.7,7.2,2.1,10.5c1.4,3.3,3.4,6.2,5.8,8.7c2.5,2.5,5.3,4.4,8.7,5.9c3.3,1.4,6.8,2.1,10.6,2.1
			c2.6,0,5-0.3,7.4-1c2.4-0.7,4.6-1.6,6.6-2.9c2-1.2,3.9-2.7,5.5-4.4c1.6-1.7,3-3.6,4.2-5.6c-1.2-0.6-2.1-1.1-2.8-1.5
			C150.8,39,150.2,38.6,149.5,38.3z"/>
		<g>
			<linearGradient id="SVGID_6_" gradientUnits="userSpaceOnUse" x1="-37.1883" y1="50.7105" x2="282.8117" y2="-86.2895">
				<stop  offset="0" style="stop-color:#CB8A2C"/>
				<stop  offset="5.911693e-02" style="stop-color:#D19945"/>
				<stop  offset="0.2977" style="stop-color:#E9D1A4"/>
				<stop  offset="0.405" style="stop-color:#F3E7CA"/>
				<stop  offset="0.4771" style="stop-color:#F1E3C3"/>
				<stop  offset="0.5821" style="stop-color:#EDD7B0"/>
				<stop  offset="0.7072" style="stop-color:#E6C590"/>
				<stop  offset="0.8478" style="stop-color:#DCAA63"/>
				<stop  offset="1" style="stop-color:#CF892B"/>
			</linearGradient>
			<path class="st4" d="M27.7,0.2l-26.9,0c0,0-0.4,0-0.5,0.1C0.1,0.6,0.3,0.7,0.4,1c1,1.5,1.7,3.3,1.7,5.3v47.3
				c0,0.8,0.7,1.5,1.5,1.5h23.9c6.8,0,26.3-3.9,26.3-28.3C53.7,2.4,34.5,0.2,27.7,0.2 M22.9,47.5h-6.3V7.8h6.3
				c11.2,0,15.2,5.7,15.2,18.9C38.1,40,33.3,47.5,22.9,47.5"/>
		</g>
		<linearGradient id="SVGID_7_" gradientUnits="userSpaceOnUse" x1="-19.814" y1="91.2929" x2="300.186" y2="-45.7071">
			<stop  offset="0" style="stop-color:#CB8A2C"/>
			<stop  offset="5.911693e-02" style="stop-color:#D19945"/>
			<stop  offset="0.2977" style="stop-color:#E9D1A4"/>
			<stop  offset="0.405" style="stop-color:#F3E7CA"/>
			<stop  offset="0.4771" style="stop-color:#F1E3C3"/>
			<stop  offset="0.5821" style="stop-color:#EDD7B0"/>
			<stop  offset="0.7072" style="stop-color:#E6C590"/>
			<stop  offset="0.8478" style="stop-color:#DCAA63"/>
			<stop  offset="1" style="stop-color:#CF892B"/>
		</linearGradient>
		<path class="st6" d="M99.1,53.5c0,0.7-0.5,1.2-1.2,1.2h-39c-0.7,0-1.2-0.5-1.2-1.2V45c0-0.7,0.5-1.2,1.2-1.2h39
			c0.7,0,1.2,0.5,1.2,1.2V53.5z"/>
		<linearGradient id="SVGID_8_" gradientUnits="userSpaceOnUse" x1="-27.6318" y1="73.0324" x2="292.3682" y2="-63.9676">
			<stop  offset="0" style="stop-color:#CB8A2C"/>
			<stop  offset="5.911693e-02" style="stop-color:#D19945"/>
			<stop  offset="0.2977" style="stop-color:#E9D1A4"/>
			<stop  offset="0.405" style="stop-color:#F3E7CA"/>
			<stop  offset="0.4771" style="stop-color:#F1E3C3"/>
			<stop  offset="0.5821" style="stop-color:#EDD7B0"/>
			<stop  offset="0.7072" style="stop-color:#E6C590"/>
			<stop  offset="0.8478" style="stop-color:#DCAA63"/>
			<stop  offset="1" style="stop-color:#CF892B"/>
		</linearGradient>
		<path class="st10" d="M99.1,31.9c0,0.7-0.5,1.2-1.2,1.2h-39c-0.7,0-1.2-0.5-1.2-1.2v-8.5c0-0.7,0.5-1.2,1.2-1.2h39
			c0.7,0,1.2,0.5,1.2,1.2V31.9z"/>
		<linearGradient id="SVGID_9_" gradientUnits="userSpaceOnUse" x1="-34.7028" y1="56.5161" x2="285.2972" y2="-80.4839">
			<stop  offset="0" style="stop-color:#CB8A2C"/>
			<stop  offset="5.911693e-02" style="stop-color:#D19945"/>
			<stop  offset="0.2977" style="stop-color:#E9D1A4"/>
			<stop  offset="0.405" style="stop-color:#F3E7CA"/>
			<stop  offset="0.4771" style="stop-color:#F1E3C3"/>
			<stop  offset="0.5821" style="stop-color:#EDD7B0"/>
			<stop  offset="0.7072" style="stop-color:#E6C590"/>
			<stop  offset="0.8478" style="stop-color:#DCAA63"/>
			<stop  offset="1" style="stop-color:#CF892B"/>
		</linearGradient>
		<path class="st16" d="M99.5,9.8V2.7V2c0-0.8-0.6-1.4-1.4-1.4h-0.7H70.5c-0.4,0-0.7-0.1-1.1-0.1c-0.4,0-0.9,0-1.3,0.1
			c-5.7,0.7-10,5.4-10,11.3c0,0,0,0,0,0h22.7c0,0,0,0,0,0l16.5,0v0H98c0,0,0.1,0,0.1,0c0.7-0.1,1.3-0.6,1.3-1.4c0,0,0-0.1,0-0.1
			L99.5,9.8L99.5,9.8z"/>
	</g>
</g>
</svg>
